# xmcd CD database file
#
# Track frame offsets:
#	150
#	13016
#	26568
#	40474
#	52998
#	67179
#	82184
#	97247
#	109336
#	124068
#	140669
#	153807
#
# Disc length: 2442 seconds
#
# Revision: 0
# Processed by: cddbd v1.4PL0 Copyright (c) Steve Scherf et al.
# Submitted via: CDex 1.40Beta9
#
DISCID=ab09880c
DTITLE=Various Artist - Dawn Of The Blues
DYEAR=2002
DGENRE=Blues
TTITLE0=Big Joe Turner/Roll 'Em Pete
TTITLE1=Blind Lemon Jefferson/Black Snake Moan
TTITLE2=Mamie Smith/Goin' Crazy With The Blues
TTITLE3=Lonnie Johnson/Flood Water Blues
TTITLE4=Bea Booze/See See Rider
TTITLE5=Trixie Smith/Freight Train Blues
TTITLE6=Blind Willie McTell/Travelin' Blues
TTITLE7=Billie Holiday/Billie's Blues
TTITLE8=Blind Boy Fuller/Working Man Blues
TTITLE9=Champion Jack Dupree/Too Evil To Cry
TTITLE10=Leadbelly/Good Morning Blues
TTITLE11=Willie Bryant/Blues Around The Clock, Parts 1 and 2
EXTD=YEAR: 2002 ID3G: 0
EXTT0=
EXTT1=
EXTT2=
EXTT3=
EXTT4=
EXTT5=
EXTT6=
EXTT7=
EXTT8=
EXTT9=
EXTT10=
EXTT11=
PLAYORDER=
